<svg preserveAspectRatio="none" width="100%" height="100%" overflow="visible" style="display: block;" viewBox="0 0 39 39" fill="none" xmlns="http://www.w3.org/2000/svg">
<g id="devicon-plain:facebook">
<path id="Vector" d="M35.4711 1.54486H3.52771C3.00246 1.54486 2.49872 1.75352 2.12731 2.12493C1.7559 2.49634 1.54724 3.00008 1.54724 3.52533V35.4718C1.54724 35.9971 1.7559 36.5008 2.12731 36.8722C2.49872 37.2436 3.00246 37.4523 3.52771 37.4523H20.7182V23.5494H16.0443V18.129H20.7182V14.1315C20.7182 9.49416 23.5518 6.9683 27.6894 6.9683C29.0857 6.96332 30.4812 7.03452 31.8697 7.18158V12.0292H29.0087C26.7571 12.0292 26.3214 13.0986 26.3214 14.6678V18.129H31.6869L30.9892 23.5494H26.3214V37.4553H35.462C35.987 37.4545 36.4903 37.2456 36.8615 36.8744C37.2328 36.5031 37.4417 35.9999 37.4425 35.4749V3.52838C37.4433 3.00418 37.2362 2.50103 36.8667 2.12923C36.4972 1.75742 35.9953 1.54728 35.4711 1.54486Z" fill="white"/>
</g>
</svg>
