<svg preserveAspectRatio="none" width="100%" height="100%" overflow="visible" style="display: block;" viewBox="0 0 39 39" fill="none" xmlns="http://www.w3.org/2000/svg">
<g id="formkit:instagram">
<path id="Vector" d="M19.5 13.8206C16.3556 13.8206 13.8206 16.38 13.8206 19.5C13.8206 22.62 16.38 25.1794 19.5 25.1794C22.62 25.1794 25.1794 22.62 25.1794 19.5C25.1794 16.38 22.62 13.8206 19.5 13.8206ZM36.5625 19.5C36.5625 17.1356 36.5625 14.82 36.4406 12.4556C36.3187 9.72563 35.685 7.28813 33.6862 5.31375C31.6875 3.315 29.2744 2.68125 26.5444 2.55937C24.18 2.4375 21.8644 2.4375 19.5 2.4375C17.1356 2.4375 14.82 2.4375 12.4556 2.55937C9.72563 2.68125 7.28813 3.315 5.31375 5.31375C3.315 7.3125 2.68125 9.72563 2.55937 12.4556C2.4375 14.82 2.4375 17.1356 2.4375 19.5C2.4375 21.8644 2.4375 24.18 2.55937 26.5444C2.68125 29.2744 3.315 31.7119 5.31375 33.6862C7.3125 35.685 9.72563 36.3187 12.4556 36.4406C14.82 36.5625 17.1356 36.5625 19.5 36.5625C21.8644 36.5625 24.18 36.5625 26.5444 36.4406C29.2744 36.3187 31.7119 35.685 33.6862 33.6862C35.685 31.6875 36.3187 29.2744 36.4406 26.5444C36.5869 24.2044 36.5625 21.8644 36.5625 19.5ZM19.5 28.2506C14.6494 28.2506 10.7494 24.3506 10.7494 19.5C10.7494 14.6494 14.6494 10.7494 19.5 10.7494C24.3506 10.7494 28.2506 14.6494 28.2506 19.5C28.2506 24.3506 24.3506 28.2506 19.5 28.2506ZM28.6162 12.4312C27.495 12.4312 26.5687 11.5294 26.5687 10.3838C26.5687 9.23813 27.4706 8.33625 28.6162 8.33625C29.7619 8.33625 30.6637 9.23813 30.6637 10.3838C30.6699 10.6507 30.6212 10.9162 30.5205 11.1635C30.4199 11.4109 30.2695 11.635 30.0788 11.8219C29.8919 12.0127 29.6678 12.163 29.4204 12.2637C29.173 12.3643 28.9076 12.413 28.6406 12.4069L28.6162 12.4312Z" fill="white"/>
</g>
</svg>
