<svg preserveAspectRatio="none" width="100%" height="100%" overflow="visible" style="display: block;" viewBox="0 0 40.5 43.75" fill="none" xmlns="http://www.w3.org/2000/svg">
<g id="ri:whatsapp-fill" filter="url(#filter0_d_0_16)">
<path id="Vector" d="M20.25 3.25C29.2249 3.25 36.5 10.5251 36.5 19.5C36.5 28.4749 29.2249 35.75 20.25 35.75C17.3782 35.7549 14.557 34.9949 12.0763 33.5481L4.00653 35.75L6.20352 27.677C4.75558 25.1955 3.99499 22.373 4.00002 19.5C4.00002 10.5251 11.2752 3.25 20.25 3.25ZM14.712 11.8625L14.387 11.8755C14.1769 11.89 13.9716 11.9452 13.7825 12.038C13.6063 12.138 13.4454 12.2627 13.3048 12.4085C13.1098 12.5921 12.9993 12.7514 12.8806 12.9057C12.2796 13.6872 11.956 14.6466 11.9609 15.6325C11.9641 16.4287 12.1721 17.2039 12.4971 17.9286C13.1618 19.3944 14.2554 20.9462 15.6984 22.3844C16.0461 22.7305 16.3874 23.0782 16.7546 23.4016C18.5477 24.9802 20.6844 26.1186 22.9946 26.7264L23.9176 26.8677C24.2183 26.884 24.5189 26.8612 24.8211 26.8466C25.2943 26.8217 25.7563 26.6936 26.1748 26.4712C26.3874 26.3613 26.5951 26.242 26.7972 26.1137C26.7972 26.1137 26.8659 26.0672 27.0003 25.9675C27.2197 25.805 27.3545 25.6896 27.5365 25.4995C27.673 25.3587 27.7868 25.1951 27.8778 25.0087C28.0045 24.7439 28.1313 24.2385 28.1833 23.8176C28.2223 23.4959 28.2109 23.3204 28.206 23.2115C28.1995 23.0376 28.0549 22.8572 27.8973 22.7809L26.9515 22.3567C26.9515 22.3567 25.5378 21.7409 24.6733 21.3476C24.5828 21.3082 24.4859 21.2857 24.3873 21.281C24.2761 21.2694 24.1637 21.2818 24.0577 21.3174C23.9517 21.353 23.8546 21.411 23.773 21.4874C23.7649 21.4841 23.656 21.5767 22.4811 23.0002C22.4137 23.0909 22.3208 23.1593 22.2143 23.197C22.1078 23.2346 21.9925 23.2396 21.8831 23.2115C21.7772 23.1833 21.6735 23.1474 21.5728 23.1042C21.3713 23.0197 21.3014 22.9872 21.1633 22.9287C20.2303 22.5223 19.3667 21.9724 18.6039 21.2989C18.3991 21.1201 18.209 20.9251 18.014 20.7366C17.3748 20.1243 16.8176 19.4317 16.3565 18.6761L16.2606 18.5217C16.1928 18.4174 16.1372 18.3056 16.0949 18.1886C16.0331 17.9497 16.194 17.758 16.194 17.758C16.194 17.758 16.5889 17.3257 16.7725 17.0917C16.9513 16.8642 17.1024 16.6432 17.1999 16.4856C17.3916 16.1769 17.4518 15.86 17.351 15.6146C16.896 14.5031 16.4259 13.3976 15.9405 12.298C15.8446 12.0802 15.5603 11.9242 15.3019 11.8934C15.2141 11.8825 15.1264 11.8739 15.0386 11.8674C14.8205 11.8549 14.6017 11.857 14.3838 11.8739L14.712 11.8625Z" fill="white"/>
</g>
<defs>
<filter id="filter0_d_0_16" x="-3.2516" y="0" width="47" height="47" filterUnits="userSpaceOnUse" color-interpolation-filters="sRGB">
<feFlood flood-opacity="0" result="BackgroundImageFix"/>
<feColorMatrix in="SourceAlpha" type="matrix" values="0 0 0 0 0 0 0 0 0 0 0 0 0 0 0 0 0 0 127 0" result="hardAlpha"/>
<feOffset dy="4"/>
<feGaussianBlur stdDeviation="2"/>
<feComposite in2="hardAlpha" operator="out"/>
<feColorMatrix type="matrix" values="0 0 0 0 0 0 0 0 0 0 0 0 0 0 0 0 0 0 0.25 0"/>
<feBlend mode="normal" in2="BackgroundImageFix" result="effect1_dropShadow_0_16"/>
<feBlend mode="normal" in="SourceGraphic" in2="effect1_dropShadow_0_16" result="shape"/>
</filter>
</defs>
</svg>
